<svg xmlns="http://www.w3.org/2000/svg" viewBox="0 0 900 520" role="img" aria-labelledby="title desc">
  <title id="title">Abstract systems map for Yiting Zhao CV</title>
  <desc id="desc">A restrained network illustration connecting research, design, AI, smart buildings, and sustainability.</desc>
  <defs>
    <linearGradient id="bg" x1="0" x2="1" y1="0" y2="1">
      <stop offset="0" stop-color="#edf7f5"/>
      <stop offset="0.55" stop-color="#f5f0e8"/>
      <stop offset="1" stop-color="#eef2f8"/>
    </linearGradient>
    <filter id="soft" x="-20%" y="-20%" width="140%" height="140%">
      <feGaussianBlur in="SourceGraphic" stdDeviation="1.5"/>
    </filter>
  </defs>
  <rect width="900" height="520" fill="url(#bg)"/>
  <g fill="none" stroke="#315f69" stroke-width="2" opacity="0.36">
    <path d="M160 130 C275 84 342 179 452 137 S675 72 744 154"/>
    <path d="M132 322 C260 228 320 360 454 276 S666 214 772 326"/>
    <path d="M226 420 C315 318 417 432 504 342 S628 188 744 154"/>
    <path d="M160 130 C208 248 298 300 454 276 C552 260 628 302 772 326"/>
    <path d="M452 137 C435 198 438 226 454 276 C466 314 482 329 504 342"/>
  </g>
  <g fill="#ffffff" stroke="#315f69" stroke-width="2.5">
    <circle cx="160" cy="130" r="45"/>
    <circle cx="452" cy="137" r="55"/>
    <circle cx="744" cy="154" r="48"/>
    <circle cx="132" cy="322" r="42"/>
    <circle cx="454" cy="276" r="62"/>
    <circle cx="772" cy="326" r="46"/>
    <circle cx="226" cy="420" r="38"/>
    <circle cx="504" cy="342" r="44"/>
  </g>
  <g font-family="Inter, Arial, sans-serif" fill="#1f3237" text-anchor="middle">
    <text x="160" y="125" font-size="17" font-weight="700">Research</text>
    <text x="160" y="148" font-size="13">methods</text>
    <text x="452" y="131" font-size="17" font-weight="700">CoPSS</text>
    <text x="452" y="154" font-size="13">systems</text>
    <text x="744" y="149" font-size="17" font-weight="700">Smart</text>
    <text x="744" y="172" font-size="13">buildings</text>
    <text x="132" y="316" font-size="17" font-weight="700">Design</text>
    <text x="132" y="339" font-size="13">strategy</text>
    <text x="454" y="270" font-size="18" font-weight="700">Digital</text>
    <text x="454" y="295" font-size="13">transformation</text>
    <text x="772" y="321" font-size="17" font-weight="700">AI</text>
    <text x="772" y="344" font-size="13">product</text>
    <text x="226" y="416" font-size="16" font-weight="700">RPM</text>
    <text x="226" y="438" font-size="12">projects</text>
    <text x="504" y="337" font-size="16" font-weight="700">SD</text>
    <text x="504" y="359" font-size="12">sustainability</text>
  </g>
  <g filter="url(#soft)" opacity="0.5">
    <circle cx="314" cy="205" r="4" fill="#b34d3e"/>
    <circle cx="603" cy="258" r="5" fill="#b34d3e"/>
    <circle cx="355" cy="370" r="4" fill="#b34d3e"/>
  </g>
</svg>
